<svg xmlns="http://www.w3.org/2000/svg" xmlns:xlink="http://www.w3.org/1999/xlink" viewBox="0 0 1080 1080"><defs><style>.cls-1{fill:#99adf9;}.cls-10,.cls-15,.cls-2{fill:#ff97c9;}.cls-3{isolation:isolate;}.cls-4{clip-path:url(#clip-path);}.cls-5{fill:#7791e5;}.cls-6{clip-path:url(#clip-path-2);}.cls-16,.cls-7{fill:#e1ecff;}.cls-8{clip-path:url(#clip-path-3);}.cls-9{fill:#fff;opacity:0.79;mix-blend-mode:soft-light;}.cls-10{opacity:0.21;}.cls-10,.cls-15,.cls-16{mix-blend-mode:multiply;}.cls-11{clip-path:url(#clip-path-4);}.cls-12{clip-path:url(#clip-path-5);}.cls-13{fill:#1c3177;}.cls-14{fill:none;stroke:#1c3177;stroke-linecap:round;stroke-miterlimit:10;stroke-width:8px;}.cls-15{opacity:0.49;}</style><clipPath id="clip-path"><path class="cls-1" d="M426.26,576.86s-30.44-27-11.74-52.14,51.5,2.56,51.5,2.56-23.44-26.78-2.56-47.92,47.81,15.51,47.81,15.51-8.22-38.7,18.56-44.85,37.35,30.13,37.35,30.13,9.28-37.17,37.46-34.74,25.11,41.26,25.11,41.26Z"/></clipPath><clipPath id="clip-path-2"><path class="cls-1" d="M234.39,307.34s.52-24.76,23.58-26,25.29,32.39,25.29,32.39,14.42-24.45,37.23-11.89,4.82,39.76,4.82,39.76,22.68-11.41,36.17,9.95-12.2,39.18-12.2,39.18,24,2.67,26.55,23-20,29.35-20,29.35Z"/></clipPath><clipPath id="clip-path-3"><path class="cls-2" d="M353.28,674.35s10.38-171.93,0-261.09-70.61-112-133.75-104.8c-53,6-91.73,41.34-88,77.55s34.85,53.47,92.59,54.66c.51,51.93-10,233.68-10,233.68Z"/></clipPath><clipPath id="clip-path-4"><path class="cls-2" d="M393.6,674.35s11.7-102.49,83.83-159,174.51-41.13,221.12,8.54c59.55,63.47,56,150.42,56,150.42H650.15s-11.33-71.65-65.69-71.65-66.23,71.65-66.23,71.65Z"/></clipPath><clipPath id="clip-path-5"><path class="cls-2" d="M788.87,674.35s15.63-65.17,58.68-105.29,76.71-53.73,87.37-37.17c6.49,10.08-29.21,45.86-40,142.46Z"/></clipPath></defs><g class="cls-3"><g id="Layer_2" data-name="Layer 2"><path class="cls-1" d="M426.26,576.86s-30.44-27-11.74-52.14,51.5,2.56,51.5,2.56-23.44-26.78-2.56-47.92,47.81,15.51,47.81,15.51-8.22-38.7,18.56-44.85,37.35,30.13,37.35,30.13,9.28-37.17,37.46-34.74,25.11,41.26,25.11,41.26Z"/><g class="cls-4"><path class="cls-5" d="M494,465.53,540,540l136.9-15L662.3,421.71S516.63,426.32,494,465.53Z"/></g><path class="cls-1" d="M234.39,307.34s.52-24.76,23.58-26,25.29,32.39,25.29,32.39,14.42-24.45,37.23-11.89,4.82,39.76,4.82,39.76,22.68-11.41,36.17,9.95-12.2,39.18-12.2,39.18,24,2.67,26.55,23-20,29.35-20,29.35Z"/><g class="cls-6"><polygon class="cls-5" points="345.85 321.01 289.48 374.82 322.28 474.75 406.32 440.42 385.83 347.41 345.85 321.01"/></g><path class="cls-7" d="M961.87,674.35H155.18A40.19,40.19,0,0,0,115,714.54h0a40.18,40.18,0,0,0,40.19,40.18h23a23,23,0,0,1,22.88,23.35v.26h0a40.18,40.18,0,0,0,40.18,40.19H722a40.18,40.18,0,0,0,40.18-40.19h0v-.26a23,23,0,0,1,22.88-23.35H961.87a40.18,40.18,0,0,0,40.18-40.18h0A40.18,40.18,0,0,0,961.87,674.35Z"/><path class="cls-2" d="M353.28,674.35s10.38-171.93,0-261.09-70.61-112-133.75-104.8c-53,6-91.73,41.34-88,77.55s34.85,53.47,92.59,54.66c.51,51.93-10,233.68-10,233.68Z"/><g class="cls-8"><path class="cls-9" d="M224,457.76s21.25-16.14,40.43-1.37c34.16,26.3,18.79,218,18.79,218h-69.1Z"/><path class="cls-10" d="M356.36,451.89s-8.2,137.91-57.65,237.32C356,703.82,376,692.29,376,692.29Z"/><path class="cls-2" d="M222,507.74a5,5,0,0,1-1.11-9.87c1.18-.27,29.41-6.52,72.09-2.39a5,5,0,0,1-1,10c-41-4-68.63,2.12-68.91,2.18A5.22,5.22,0,0,1,222,507.74Z"/><path class="cls-2" d="M215.18,561.68a5,5,0,0,1-1-9.91c1.29-.25,32.07-6.13,78.67-2.24a5,5,0,1,1-.83,10c-45.11-3.77-75.62,2-75.92,2.09A5.36,5.36,0,0,1,215.18,561.68Z"/><path class="cls-2" d="M215.18,625.68a5,5,0,0,1-1.11-9.87c1.18-.27,29.41-6.52,72.09-2.39a5,5,0,0,1-1,10c-40.95-4-68.63,2.12-68.91,2.18A5.22,5.22,0,0,1,215.18,625.68Z"/></g><path class="cls-2" d="M393.6,674.35s11.7-102.49,83.83-159,174.51-41.13,221.12,8.54c59.55,63.47,56,150.42,56,150.42H650.15s-11.33-71.65-65.69-71.65-66.23,71.65-66.23,71.65Z"/><g class="cls-11"><path class="cls-10" d="M601.8,480.23s102.77,38.59,95.85,194.12h69.19L739.16,464Z"/></g><path class="cls-2" d="M788.87,674.35s15.63-65.17,58.68-105.29,76.71-53.73,87.37-37.17c6.49,10.08-29.21,45.86-40,142.46Z"/><g class="cls-12"><path class="cls-10" d="M839.09,685.37S868.3,563.15,944.4,546.24c-10.76,72.64-39.2,150.66-39.2,150.66Z"/></g><circle class="cls-13" cx="167.78" cy="355.6" r="8.2"/><circle class="cls-13" cx="226.19" cy="355.6" r="8.2"/><path class="cls-14" d="M172.9,389.17a197.2,197.2,0,0,1,40.48,0"/><ellipse class="cls-10" cx="582.61" cy="507" rx="7.64" ry="14.44" transform="translate(-27.53 980.52) rotate(-78.85)"/><ellipse class="cls-10" cx="625.35" cy="532.79" rx="6.43" ry="11.11" transform="translate(-18.35 1043.25) rotate(-78.85)"/><ellipse class="cls-15" cx="584.14" cy="543.25" rx="6.48" ry="11.52" transform="translate(-61.86 1011.25) rotate(-78.85)"/><rect class="cls-16" x="316.39" y="721.5" width="267.75" height="42.02" rx="21.01"/></g></g></svg>